<?xml version="1.0" encoding="utf-8"?>
<!-- Generator: Adobe Illustrator 25.1.0, SVG Export Plug-In . SVG Version: 6.00 Build 0)  -->
<svg version="1.1" id="レイヤー_1" xmlns="http://www.w3.org/2000/svg" xmlns:xlink="http://www.w3.org/1999/xlink" x="0px"
	 y="0px" viewBox="0 0 500 500" style="enable-background:new 0 0 500 500;" xml:space="preserve">
<style type="text/css">
	.st0{fill-rule:evenodd;clip-rule:evenodd;fill:#FF7C00;}
	.st1{fill-rule:evenodd;clip-rule:evenodd;fill:#261300;}
</style>
<g id="Layer_x0020_1">
	<rect x="30.671" y="32.003" class="st0" width="438.687" height="435.994"/>
	<rect x="67.436" y="68.541" class="st1" width="365.157" height="362.918"/>
	<g id="_1927324032">
		<path class="st0" d="M324.82,206.645h34.639c0.892,0,1.616,0.723,1.616,1.616v142.213c0,0.892-0.723,1.616-1.616,1.616H324.82
			c-0.892,0-1.616-0.723-1.616-1.616V208.26C323.204,207.368,323.928,206.645,324.82,206.645z"/>
		<ellipse class="st0" cx="342.14" cy="168.179" rx="20.126" ry="19.247"/>
	</g>
	<path class="st0" d="M248.342,301.236l14.201,47.027c0.737,2.778,2.183,3.458,4.139,3.43h36.368
		c2.806,0.028,3.005-0.822,2.579-2.693l-60.066-200.352c-0.113-0.368-0.397-0.624-0.964-0.624l-50.371-0.142
		c-1.984,0-2.013,1.02-1.843,2.948c0.624,6.973,0.283,10.885-1.191,16.356l-53.178,181.927c-0.567,1.729-0.425,2.58,1.843,2.608
		l34.327-0.028c3.628-0.113,3.827-1.106,4.45-2.92l11.905-47.537H248.342z M241,264.669h-41.697l20.211-81.751L241,264.669z"/>
</g>
</svg>
