<?xml version="1.0" encoding="utf-8"?>
<!-- Generator: Adobe Illustrator 25.1.0, SVG Export Plug-In . SVG Version: 6.00 Build 0)  -->
<svg version="1.1" id="レイヤー_1" xmlns="http://www.w3.org/2000/svg" xmlns:xlink="http://www.w3.org/1999/xlink" x="0px"
	 y="0px" viewBox="0 0 256 361" style="enable-background:new 0 0 256 361;" xml:space="preserve">
<style type="text/css">
	.st0{fill:#264DE4;}
	.st1{fill:#2965F1;}
	.st2{fill:#EBEBEB;}
	.st3{fill:#FFFFFF;}
</style>
<g>
	<path class="st0" d="M127.844,360.088L23.662,331.166L0.445,70.766h255.11l-23.241,260.36L127.844,360.088L127.844,360.088z"/>
	<path class="st1" d="M212.417,314.547l19.861-222.489H128V337.95L212.417,314.547L212.417,314.547z"/>
	<path class="st2" d="M53.669,188.636l2.862,31.937H128v-31.937H53.669L53.669,188.636z"/>
	<path class="st2" d="M47.917,123.995l2.903,31.937H128v-31.937H47.917L47.917,123.995z"/>
	<path class="st2" d="M128,271.58l-0.14,0.037l-35.569-9.604l-2.274-25.471h-32.06l4.474,50.146l65.421,18.161l0.147-0.041V271.58
		L128,271.58z"/>
	<path d="M60.484,0h38.681v16.176H76.659v16.176h22.505v16.176H60.484V0L60.484,0z"/>
	<path d="M106.901,0h38.681v14.066h-22.505v2.813h22.505v32.352h-38.681V34.462h22.505v-2.813h-22.505V0L106.901,0z"/>
	<path d="M153.319,0H192v14.066h-22.505v2.813H192v32.352h-38.681V34.462h22.505v-2.813h-22.505V0L153.319,0z"/>
	<path class="st3" d="M202.127,188.636l5.766-64.641H127.89v31.937h45.003l-2.906,32.704H127.89v31.937h39.327l-3.707,41.42
		l-35.62,9.614v33.227l65.473-18.146l0.48-5.396l7.505-84.08L202.127,188.636L202.127,188.636z"/>
</g>
</svg>
