<?xml version="1.0" encoding="utf-8"?>
<!-- Generator: Adobe Illustrator 25.1.0, SVG Export Plug-In . SVG Version: 6.00 Build 0)  -->
<svg version="1.1" id="レイヤー_1" xmlns="http://www.w3.org/2000/svg" xmlns:xlink="http://www.w3.org/1999/xlink" x="0px"
	 y="0px" viewBox="0 0 256 250" style="enable-background:new 0 0 256 250;" xml:space="preserve">
<style type="text/css">
	.st0{fill:#161614;}
</style>
<g>
	<path class="st0" d="M128.001,0C57.317,0,0,57.307,0,128.001c0,56.554,36.676,104.534,87.535,121.46
		c6.397,1.185,8.746-2.777,8.746-6.158c0-3.052-0.119-13.135-0.174-23.831c-35.61,7.743-43.124-15.102-43.124-15.102
		c-5.823-14.795-14.212-18.729-14.212-18.729c-11.614-7.944,0.875-7.781,0.875-7.781c12.854,0.903,19.622,13.191,19.622,13.191
		c11.416,19.569,29.944,13.911,37.249,10.641c1.149-8.273,4.466-13.92,8.127-17.116c-28.431-3.237-58.318-14.212-58.318-63.259
		c0-13.975,5-25.393,13.188-34.357c-1.329-3.224-5.71-16.243,1.24-33.874c0,0,10.749-3.44,35.209,13.121
		c10.21-2.836,21.16-4.258,32.038-4.307c10.878,0.049,21.837,1.471,32.066,4.307c24.431-16.561,35.165-13.121,35.165-13.121
		c6.967,17.631,2.584,30.65,1.255,33.874c8.207,8.964,13.174,20.382,13.174,34.357c0,49.163-29.944,59.988-58.447,63.157
		c4.591,3.972,8.682,11.762,8.682,23.704c0,17.127-0.148,30.911-0.148,35.127c0,3.406,2.304,7.398,8.792,6.141
		C219.37,232.5,256,184.536,256,128.001C256,57.307,198.691,0,128.001,0z M47.941,182.34c-0.282,0.636-1.282,0.827-2.194,0.39
		c-0.928-0.418-1.45-1.285-1.149-1.923c0.276-0.655,1.278-0.837,2.204-0.398C47.733,180.827,48.263,181.702,47.941,182.34z
		 M54.237,187.958c-0.61,0.566-1.804,0.303-2.614-0.591c-0.837-0.892-0.994-2.086-0.375-2.66c0.63-0.566,1.787-0.301,2.626,0.591
		C54.712,186.201,54.875,187.386,54.237,187.958z M58.556,195.146c-0.784,0.545-2.067,0.034-2.859-1.104
		c-0.784-1.138-0.784-2.503,0.017-3.05c0.795-0.547,2.058-0.055,2.862,1.075C59.357,193.224,59.357,194.589,58.556,195.146z
		 M65.861,203.471c-0.702,0.774-2.196,0.566-3.29-0.49c-1.119-1.032-1.431-2.497-0.727-3.271c0.71-0.776,2.213-0.557,3.315,0.49
		C66.27,201.231,66.61,202.706,65.861,203.471z M75.303,206.282c-0.309,1.003-1.749,1.458-3.199,1.032
		c-1.448-0.439-2.395-1.613-2.103-2.626c0.301-1.009,1.747-1.484,3.207-1.028C74.654,204.096,75.604,205.262,75.303,206.282z
		 M86.047,207.474c0.036,1.056-1.193,1.931-2.715,1.95c-1.53,0.034-2.768-0.82-2.785-1.859c0-1.066,1.202-1.933,2.732-1.959
		C84.801,205.577,86.047,206.424,86.047,207.474z M96.602,207.069c0.182,1.03-0.875,2.088-2.387,2.37
		c-1.486,0.271-2.862-0.365-3.05-1.386c-0.184-1.056,0.892-2.113,2.376-2.387C95.055,205.403,96.409,206.022,96.602,207.069z"/>
</g>
</svg>
