<?xml version="1.0" encoding="utf-8"?>
<!-- Generator: Adobe Illustrator 25.1.0, SVG Export Plug-In . SVG Version: 6.00 Build 0)  -->
<svg version="1.1" id="レイヤー_1" xmlns="http://www.w3.org/2000/svg" xmlns:xlink="http://www.w3.org/1999/xlink" x="0px"
	 y="0px" viewBox="0 0 510.72 475.67" style="enable-background:new 0 0 510.72 475.67;" xml:space="preserve">
<style type="text/css">
	.st0{fill-rule:evenodd;clip-rule:evenodd;fill:#1A1918;}
	.st1{fill-rule:evenodd;clip-rule:evenodd;fill:#21609B;}
	.st2{fill:#264DE4;}
	.st3{fill:#2965F1;}
	.st4{fill:#EBEBEB;}
	.st5{fill:#FFFFFF;}
	.st6{fill:#E44D26;}
	.st7{fill:#F16529;}
</style>
<path class="st0" d="M489.02,368.31l21.42,0.12l-43.08,58.36c-1.05,1.42-2.66,3-3.47,4.86c-2.06,4.79-4.17,15.29-4.17,15.29
	l-19.6,0.09c0,0,3.05-10.94,2.92-16.77c-0.11-5.09-2.71-10.18-4.17-15.28s-3.47-15.29-3.47-15.29h20.15l2.78,11.12L489.02,368.31"/>
<path class="st0" d="M448.46,379.69c3.95,2.38,6.38,15.53,6.38,15.53s-20.69,0.3-31.95,0.3h-9.72l-11.81,51.42h-18.08
	c0,0,11.24-55.88,13.9-66c0.86-3.28,5.89-2.72,14.39-2.72h13.57c8.76,0,19-1.11,23.31,1.48"/>
<path class="st0" d="M364.36,404.73c0.215-2.524-0.461-5.043-1.91-7.12c-2.11-3.26-4.07-4-9.62-4.19
	c-15.7-0.5-15.39,11.13-15.39,11.13L364.36,404.73z M381.36,391.41c2.3,8.3-2.08,27.79-2.08,27.79s-22.9-0.38-35.44,0
	c-3.9,0.12-8.56-0.42-9.72,1.39c-1.64,2.54,0.59,6.46,2.48,8.11c2.18,1.9,6.42,2.12,7.94,2.31c10.18,1.29,31.48,0.34,31.48,0.34
	l-3.69,16.34c0,0-30.1,1.5-45.16-2.09c-2.896-0.623-5.55-2.071-7.64-4.17c-0.518-0.641-1.002-1.309-1.45-2
	c-0.801-1.12-1.472-2.328-2-3.6c-3.44-9.16,0.4-26.72,4.17-36.12c0.44-1.09,1-2.48,1.56-3.65c0.73-1.47,1.34-3.12,1.91-4
	c0.39-0.6,0.87-1,1.28-1.56c0.465-0.663,0.966-1.301,1.5-1.91c1.463-1.567,3.097-2.965,4.87-4.17c6.27-4.7,17.62-8.34,31.26-6.95
	c5.14,0.53,12.89,2.37,16.68,7.65c1,1.41,1.51,4.21,2.08,6.25L381.36,391.41z"/>
<path class="st0" d="M298.53,378.15l17.51-0.1c0,0-9.76,46.31-14.76,68.89h-20.12c-14.08,0-26.63,1.74-32-8.34
	c-5.18-9.79-0.24-25.89,2.08-36.83c1.64-7.74,5.1-23.56,5.1-23.56l18.14-0.16c0,0-5.08,24.63-7.2,36.95
	c-0.76,4.4-2.34,8.55-0.69,11.81c1.56,3.1,3.75,3.32,10.42,3.47c2.11,0.05,9,0,9,0l12.51-52.11"/>
<path class="st0" d="M216.54,411.5c1.84-6.51,4.51-13.58,4.17-19.45c-0.37-6.28-5.63-12-9-13.2c-10.23-3.62-19.81,1.44-23.62,5.55
	c-4.93,5.34-6.6,11.57-8.34,20.15c-1.3,6.38-2.36,13.1,0,18.07c4.18,8.78,17.22,6.86,31.26,6.95c2.09-5.59,3.81-11.86,5.56-18.07
	L216.54,411.5z M240.86,385.79c2,14.55-5.67,30.61-11,44.58c5.39,0.48,10.11-0.08,10.45,0.32s-3.61,16.67-5,16.71
	c-4.28,0.11-18.46,0.23-24.38,0.23c-19.29,0-37.34,1.26-46.54-8.34c-3.74-3.89-6.33-10.58-6.95-15.28
	c-1.05-7.85,0.26-16.5,2.08-23.62c1.503-6.313,3.858-12.392,7-18.07c8.11-14.15,22.21-24.66,45.85-22.23
	c5.355,0.685,10.538,2.349,15.29,4.91c0.28,0.17,1.28,1,1.51,1.1c5.56,3.54,10.62,12,11.69,19.74L240.86,385.79z"/>
<path class="st0" d="M155.49,378.24c-1.16,5.31-2.33,11.33-3.56,16.59h-19.46c1.51-5.82,2.67-11.61,4.17-16.68
	C142.87,378.15,148.64,378.24,155.49,378.24"/>
<path class="st0" d="M131.78,399.69h18.76c-2.45,13.58-7.31,35.48-11.12,50.72c-2.38,9.54-4,16.5-10.42,21.54
	c-0.58,0.45-0.91,0.24-1.39,0.69c-1.19,1.14-6.68,2.45-9.73,2.78c-4.94,0.54-10.54,0.07-16.62-0.05c1.6-5.82,3.4-12.8,4.81-18
	c14.82,1.79,15.2-12.22,18.07-25.71c1.66-7.79,6.69-28.83,7.64-32"/>
<path class="st1" d="M88.01,435.13l-0.4,1c-6.86,13.34-19,21.52-36.31,21.88c-7.163,0.099-14.266-1.323-20.84-4.17
	c-10.693-4.926-19.476-13.223-25-23.62c-7.17-13.87-8.46-33.17,6.44-47.59c0.23,0-1.81,3.12-1.58,3.12l-0.41,1.34
	c-10.74,33.65,22.37,62.44,54.48,59.15C72.11,445.45,81.96,441.24,88.01,435.13"/>
<path class="st1" d="M68.55,421.23c8.083-0.057,15.819-3.29,21.54-9c-4.37,11.11-17,18.25-34,16
	c-14.27-1.96-27.81-16.23-29.22-30.62c-1-10.45,2.62-16.68,8.61-24.24c-1.568,2.766-2.603,5.802-3.05,8.95
	C30.15,404.91,50.43,421.11,68.55,421.23"/>
<path class="st1" d="M89.28,393.17c-1.26,2.89-8.5,8.33-11.69,9c-12.66,2.7-20.77-3.3-25-10.13c-0.789-1.45-1.457-2.961-2-4.52
	c-1.65-5.6-0.89-14.07,4-18.45c-1.392,3.897-1.71,8.098-0.92,12.16c0.745,2.591,1.874,5.055,3.35,7.31
	c2.62,3.81,4.28,4.74,7.64,6.76c1.215,0.748,2.505,1.364,3.85,1.84c3.18,0.94,9.92,3.41,20.77-4"/>
<path class="st2" d="M383.01,360.09l-104.18-28.92l-23.22-260.4h255.11l-23.24,260.36l-104.47,29V360.09z"/>
<path class="st3" d="M467.58,314.55l19.86-222.49H383.16V338l84.42-23.4V314.55z"/>
<path class="st4" d="M308.83,188.64l2.87,31.93h71.46v-31.93H308.83z"/>
<path class="st4" d="M303.08,124l2.9,31.94h77.18V124H303.08z"/>
<path class="st4" d="M383.16,271.58h-0.14L347.46,262l-2.28-25.47h-32.06l4.48,50.15l65.42,18.16h0.14V271.58z"/>
<path d="M315.65,0h38.68v16.18h-22.51v16.17h22.51v16.18h-38.68V0z"/>
<path d="M362.07,0h38.68v14.07h-22.47v2.81h22.51v32.35h-38.72V34.46h22.5v-2.81h-22.5V0z"/>
<path d="M408.48,0h38.68v14.07h-22.5v2.81h22.5v32.35h-38.68V34.46h22.51v-2.81h-22.51V0z"/>
<path class="st5" d="M457.28,188.64l5.78-64.64h-80v31.94h45l-2.91,32.71h-42.1v31.93h39.33L418.67,262l-35.62,9.62v33.22
	l65.48-18.14l0.48-5.4l7.5-84.08l0.78-8.57L457.28,188.64z"/>
<path class="st6" d="M255.11,70.77l-23.24,260.36l-104.47,29L23.22,331.17L0,70.77H255.11z"/>
<path class="st7" d="M127.55,338l84.42-23.4l19.86-222.54H127.55V338z"/>
<path class="st4" d="M82.37,155.93h45.18V124H47.47l0.77,8.57l7.85,88h71.46v-31.93H85.28l-2.92-32.71H82.37z"/>
<path class="st4" d="M89.57,236.54H57.51l4.48,50.15l65.42,18.16h0.14v-33.27h-0.14L91.85,262l-2.28-25.47V236.54z"/>
<path d="M23.73,0h16.23v16h14.85V0h16.23v48.56H54.81V32.3H39.97v16.26H23.74V0H23.73z"/>
<path d="M92.39,16.1H78.1V0h44.81v16.1h-14.29v32.46H92.39V16.1z"/>
<path d="M130.02,0h16.93l10.41,17.06L167.76,0h16.93v48.56h-16.17V24.49l-11.16,17.27h-0.28L145.9,24.49v24.07h-15.88V0z"/>
<path d="M192.76,0H209v32.51h22.82v16.05h-39.06V0z"/>
<path class="st5" d="M127.44,220.57h39.33L163.06,262l-35.62,9.62v33.22l65.48-18.14l0.48-5.4l7.5-84.08l0.78-8.57h-74.24v31.93
	V220.57z"/>
<path class="st5" d="M127.44,155.85v0.08h77.15l0.64-7.18l1.45-16.19l0.77-8.57h-80v31.86H127.44z"/>
</svg>
