<?xml version="1.0" encoding="utf-8"?>
<!-- Generator: Adobe Illustrator 25.1.0, SVG Export Plug-In . SVG Version: 6.00 Build 0)  -->
<svg version="1.1" id="レイヤー_1" xmlns="http://www.w3.org/2000/svg" xmlns:xlink="http://www.w3.org/1999/xlink" x="0px"
	 y="0px" viewBox="0 0 256 361" style="enable-background:new 0 0 256 361;" xml:space="preserve">
<style type="text/css">
	.st0{fill:#E44D26;}
	.st1{fill:#F16529;}
	.st2{fill:#EBEBEB;}
	.st3{fill:#FFFFFF;}
</style>
<g>
	<path class="st0" d="M255.555,70.766l-23.241,260.36l-104.47,28.962L23.662,331.166L0.445,70.766H255.555L255.555,70.766z"/>
	<path class="st1" d="M128,337.95l84.417-23.404l19.861-222.489H128V337.95L128,337.95z"/>
	<path class="st2" d="M82.82,155.932H128v-31.937H47.917l0.764,8.568l7.849,88.01H128v-31.937H85.739L82.82,155.932L82.82,155.932z"
		/>
	<path class="st2" d="M90.018,236.542h-32.06l4.474,50.146l65.421,18.161l0.147-0.041V271.58l-0.14,0.037l-35.569-9.604
		L90.018,236.542L90.018,236.542z"/>
	<path d="M24.181,0h16.23v16.035h14.847V0h16.231v48.558h-16.23v-16.26H40.411v16.26h-16.23L24.181,0L24.181,0L24.181,0z"/>
	<path d="M92.831,16.103H78.543V0h44.814v16.103h-14.295v32.456H92.832L92.831,16.103L92.831,16.103L92.831,16.103z"/>
	<path d="M130.469,0h16.923l10.41,17.062L168.203,0h16.93v48.558h-16.163V24.49l-11.166,17.265h-0.279L146.35,24.49v24.068h-15.88V0
		L130.469,0z"/>
	<path d="M193.21,0h16.235v32.508h22.824v16.051H193.21V0L193.21,0z"/>
	<path class="st3" d="M127.89,220.573h39.327l-3.707,41.42l-35.62,9.614v33.227l65.473-18.146l0.48-5.396l7.505-84.08l0.779-8.576
		H127.89V220.573L127.89,220.573z"/>
	<path class="st3" d="M127.89,155.854v0.078h77.143l0.641-7.179l1.455-16.191l0.764-8.568H127.89V155.854L127.89,155.854z"/>
</g>
</svg>
