<svg id="レイヤー_1" data-name="レイヤー 1" xmlns="http://www.w3.org/2000/svg" viewBox="0 0 510.72 475.67"><defs><style>.cls-1{fill:#1a1918;}.cls-1,.cls-2{fill-rule:evenodd;}.cls-2{fill:#21609b;}.cls-3{fill:#264de4;}.cls-4{fill:#2965f1;}.cls-5{fill:#ebebeb;}.cls-6{fill:#fff;}.cls-7{fill:#e44d26;}.cls-8{fill:#f16529;}</style></defs><path class="cls-1" d="M488.74,368.31l21.42.12-43.08,58.36c-1.05,1.42-2.66,3-3.47,4.86-2.06,4.79-4.17,15.29-4.17,15.29l-19.6.09s3.05-10.94,2.92-16.77c-.11-5.09-2.71-10.18-4.17-15.28s-3.47-15.29-3.47-15.29h20.15l2.78,11.12,30.69-42.5" transform="translate(0.28 0)"/><path class="cls-1" d="M448.18,379.69c3.95,2.38,6.38,15.53,6.38,15.53s-20.69.3-31.95.3h-9.72l-11.81,51.42H383s11.24-55.88,13.9-66c.86-3.28,5.89-2.72,14.39-2.72h13.57c8.76,0,19-1.11,23.31,1.48" transform="translate(0.28 0)"/><path class="cls-1" d="M364.08,404.73a10.84,10.84,0,0,0-1.91-7.12c-2.11-3.26-4.07-4-9.62-4.19-15.7-.5-15.39,11.13-15.39,11.13l26.92.18Zm17-13.32c2.3,8.3-2.08,27.79-2.08,27.79s-22.9-.38-35.44,0c-3.9.12-8.56-.42-9.72,1.39-1.64,2.54.59,6.46,2.48,8.11,2.18,1.9,6.42,2.12,7.94,2.31,10.18,1.29,31.48.34,31.48.34l-3.69,16.34s-30.1,1.5-45.16-2.09a15.33,15.33,0,0,1-7.64-4.17,23.71,23.71,0,0,1-1.45-2,18.16,18.16,0,0,1-2-3.6c-3.44-9.16.4-26.72,4.17-36.12.44-1.09,1-2.48,1.56-3.65.73-1.47,1.34-3.12,1.91-4,.39-.6.87-1,1.28-1.56a22.6,22.6,0,0,1,1.5-1.91,28.85,28.85,0,0,1,4.87-4.17c6.27-4.7,17.62-8.34,31.26-6.95,5.14.53,12.89,2.37,16.68,7.65,1,1.41,1.51,4.21,2.08,6.25Z" transform="translate(0.28 0)"/><path class="cls-1" d="M298.25,378.15l17.51-.1S306,424.36,301,446.94H280.88c-14.08,0-26.63,1.74-32-8.34-5.18-9.79-.24-25.89,2.08-36.83,1.64-7.74,5.1-23.56,5.1-23.56l18.14-.16S269.12,402.68,267,415c-.76,4.4-2.34,8.55-.69,11.81,1.56,3.1,3.75,3.32,10.42,3.47,2.11.05,9,0,9,0l12.51-52.11" transform="translate(0.28 0)"/><path class="cls-1" d="M216.26,411.5c1.84-6.51,4.51-13.58,4.17-19.45-.37-6.28-5.63-12-9-13.2-10.23-3.62-19.81,1.44-23.62,5.55-4.93,5.34-6.6,11.57-8.34,20.15-1.3,6.38-2.36,13.1,0,18.07,4.18,8.78,17.22,6.86,31.26,6.95,2.09-5.59,3.81-11.86,5.56-18.07Zm24.32-25.71c2,14.55-5.67,30.61-11,44.58,5.39.48,10.11-.08,10.45.32s-3.61,16.67-5,16.71c-4.28.11-18.46.23-24.38.23-19.29,0-37.34,1.26-46.54-8.34-3.74-3.89-6.33-10.58-6.95-15.28-1.05-7.85.26-16.5,2.08-23.62a71.58,71.58,0,0,1,7-18.07c8.11-14.15,22.21-24.66,45.85-22.23A44,44,0,0,1,227.38,365c.28.17,1.28,1,1.51,1.1,5.56,3.54,10.62,12,11.69,19.74Z" transform="translate(0.28 0)"/><path class="cls-1" d="M155.21,378.24c-1.16,5.31-2.33,11.33-3.56,16.59H132.19c1.51-5.82,2.67-11.61,4.17-16.68,6.23,0,12,.09,18.85.09" transform="translate(0.28 0)"/><path class="cls-1" d="M131.5,399.69h18.76c-2.45,13.58-7.31,35.48-11.12,50.72-2.38,9.54-4,16.5-10.42,21.54-.58.45-.91.24-1.39.69-1.19,1.14-6.68,2.45-9.73,2.78-4.94.54-10.54.07-16.62-.05,1.6-5.82,3.4-12.8,4.81-18,14.82,1.79,15.2-12.22,18.07-25.71,1.66-7.79,6.69-28.83,7.64-32" transform="translate(0.28 0)"/><path class="cls-2" d="M87.73,435.13l-.4,1c-6.86,13.34-19,21.52-36.31,21.88a50.68,50.68,0,0,1-20.84-4.17,53.8,53.8,0,0,1-25-23.62c-7.17-13.87-8.46-33.17,6.44-47.59.23,0-1.81,3.12-1.58,3.12l-.41,1.34C-1.11,420.74,32,449.53,64.11,446.24c7.72-.79,17.57-5,23.62-11.11" transform="translate(0.28 0)"/><path class="cls-2" d="M68.27,421.23a30.8,30.8,0,0,0,21.54-9c-4.37,11.11-17,18.25-34,16C41.54,426.27,28,412,26.59,397.61c-1-10.45,2.62-16.68,8.61-24.24a25.38,25.38,0,0,0-3.05,8.95c-2.28,22.59,18,38.79,36.12,38.91" transform="translate(0.28 0)"/><path class="cls-2" d="M89,393.17c-1.26,2.89-8.5,8.33-11.69,9-12.66,2.7-20.77-3.3-25-10.13a30.31,30.31,0,0,1-2-4.52c-1.65-5.6-.89-14.07,4-18.45a23.07,23.07,0,0,0-.92,12.16,26.93,26.93,0,0,0,3.35,7.31c2.62,3.81,4.28,4.74,7.64,6.76a20.2,20.2,0,0,0,3.85,1.84c3.18.94,9.92,3.41,20.77-4" transform="translate(0.28 0)"/><path class="cls-3" d="M382.73,360.09,278.55,331.17,255.33,70.77H510.44L487.2,331.13l-104.47,29Z" transform="translate(0.28 0)"/><path class="cls-4" d="M467.3,314.55,487.16,92.06H382.88V338l84.42-23.4Z" transform="translate(0.28 0)"/><path class="cls-5" d="M308.55,188.64l2.87,31.93h71.46V188.64Z" transform="translate(0.28 0)"/><path class="cls-5" d="M302.8,124l2.9,31.94h77.18V124Z" transform="translate(0.28 0)"/><path class="cls-5" d="M382.88,271.58l-.14,0L347.18,262l-2.28-25.47H312.84l4.48,50.15,65.42,18.16.14,0V271.58Z" transform="translate(0.28 0)"/><path d="M315.37,0h38.68V16.18H331.54V32.35h22.51V48.53H315.37V0Z" transform="translate(0.28 0)"/><path d="M361.79,0h38.68V14.07H378v2.81h22.51V49.23H361.79V34.46h22.5V31.65h-22.5V0Z" transform="translate(0.28 0)"/><path d="M408.2,0h38.68V14.07h-22.5v2.81h22.5V49.23H408.2V34.46h22.51V31.65H408.2V0Z" transform="translate(0.28 0)"/><path class="cls-6" d="M457,188.64,462.78,124h-80v31.94h45l-2.91,32.71h-42.1v31.93H422.1L418.39,262l-35.62,9.62v33.22l65.48-18.14.48-5.4,7.5-84.08.78-8.57Z" transform="translate(0.28 0)"/><path class="cls-7" d="M254.83,70.77,231.59,331.13l-104.47,29L22.94,331.17-.28,70.77Z" transform="translate(0.28 0)"/><path class="cls-8" d="M127.27,338l84.42-23.4L231.55,92.06H127.27V338Z" transform="translate(0.28 0)"/><path class="cls-5" d="M82.09,155.93h45.18V124H47.19l.77,8.57,7.85,88h71.46V188.64H85l-2.92-32.71Z" transform="translate(0.28 0)"/><path class="cls-5" d="M89.29,236.54H57.23l4.48,50.15,65.42,18.16.14,0V271.58l-.14,0L91.57,262l-2.28-25.47Z" transform="translate(0.28 0)"/><path d="M23.45,0H39.68V16H54.53V0H70.76V48.56H54.53V32.3H39.69V48.56H23.46V0Z" transform="translate(0.28 0)"/><path d="M92.11,16.1H77.82V0h44.81V16.1H108.34V48.56H92.11V16.1Z" transform="translate(0.28 0)"/><path d="M129.74,0h16.93l10.41,17.06L167.48,0h16.93V48.56H168.24V24.49L157.08,41.76h-.28L145.62,24.49V48.56H129.74V0Z" transform="translate(0.28 0)"/><path d="M192.48,0h16.24V32.51h22.82V48.56H192.48V0Z" transform="translate(0.28 0)"/><path class="cls-6" d="M127.16,220.57h39.33L162.78,262l-35.62,9.62v33.22l65.48-18.14.48-5.4,7.5-84.08.78-8.57H127.16v31.93Z" transform="translate(0.28 0)"/><path class="cls-6" d="M127.16,155.85v.08h77.15l.64-7.18,1.45-16.19.77-8.57h-80v31.86Z" transform="translate(0.28 0)"/></svg>