<?xml version="1.0" encoding="utf-8"?>
<!-- Generator: Adobe Illustrator 25.2.3, SVG Export Plug-In . SVG Version: 6.00 Build 0)  -->
<svg version="1.1" id="レイヤー_1" xmlns="http://www.w3.org/2000/svg" xmlns:xlink="http://www.w3.org/1999/xlink" x="0px"
	 y="0px" viewBox="0 0 100 100" style="enable-background:new 0 0 100 100;" xml:space="preserve">
<style type="text/css">
	.st0{fill:#71BB41;}
	.st1{fill:#FFFFFF;}
</style>
<g>
	<g>
		<path class="st0" d="M13.258,61.486c2.012-0.052,3.044,0.825,3.044,2.219c0,0.413-0.103,0.877-0.284,1.393
			c-0.8,2.141-2.038,4.23-3.534,6.165c2.399,1.625,5.081,3.998,6.913,6.113c0.336,0.387,0.49,0.799,0.49,1.16
			c0,0.852-0.8,1.548-1.651,1.548c-0.413,0-0.877-0.181-1.238-0.619c-1.599-1.935-3.972-4.282-6.345-6.062
			c-2.502,2.708-5.494,4.953-8.409,6.397c-0.258,0.129-0.516,0.181-0.748,0.181C0.619,79.981,0,79.233,0,78.485
			c0-0.515,0.258-1.006,0.877-1.315c5.365-2.708,9.879-7.093,11.917-12.097c0.077-0.155,0.103-0.309,0.103-0.413
			c0-0.232-0.206-0.336-0.645-0.336l-9.235,0.181c-0.851,0-1.289-0.697-1.289-1.393c0-0.723,0.439-1.445,1.264-1.445L13.258,61.486z
			"/>
		<path class="st0" d="M37.478,69.56c-0.413,5.056-2.811,8.925-6.526,11.169c-0.284,0.155-0.542,0.232-0.8,0.232
			c-0.825,0-1.47-0.748-1.47-1.521c0-0.439,0.206-0.929,0.774-1.264c2.992-1.935,4.643-4.565,5.03-8.615h-7.919
			c-0.748,0-1.109-0.697-1.109-1.367c0-0.697,0.361-1.367,1.109-1.367H45.01c0.748,0,1.135,0.67,1.135,1.367
			c0,0.67-0.387,1.367-1.135,1.367H37.478z M41.76,60.738c0.748,0,1.135,0.697,1.135,1.393c0,0.697-0.387,1.393-1.135,1.393h-12.02
			c-0.748,0-1.109-0.697-1.109-1.393c0-0.697,0.361-1.393,1.109-1.393H41.76z"/>
		<path class="st0" d="M57.699,69.818c0.051,0.155,0.077,0.31,0.077,0.464c0,0.748-0.748,1.264-1.47,1.264
			c-0.49,0-0.954-0.232-1.186-0.8c-0.464-1.135-1.058-2.347-1.651-3.327c-0.129-0.207-0.181-0.413-0.181-0.619
			c0-0.67,0.697-1.186,1.419-1.186c0.439,0,0.903,0.207,1.186,0.67C56.564,67.342,57.261,68.631,57.699,69.818z M68.145,65.201
			c0.722,0,1.496,0.464,1.496,1.238c0,0.103-0.026,0.207-0.052,0.336c-1.625,6.087-5.726,11.504-10.679,14.187
			c-0.258,0.129-0.49,0.207-0.722,0.207c-0.748,0-1.315-0.671-1.315-1.367c0-0.464,0.232-0.929,0.8-1.238
			c4.617-2.605,7.66-6.862,9.208-12.459C67.036,65.459,67.578,65.201,68.145,65.201z M62.651,68.58
			c0.052,0.155,0.077,0.31,0.077,0.439c0,0.748-0.722,1.238-1.419,1.238c-0.49,0-0.98-0.258-1.186-0.852
			c-0.438-1.16-0.98-2.296-1.548-3.276c-0.129-0.207-0.181-0.413-0.181-0.593c0-0.671,0.671-1.135,1.393-1.135
			c0.464,0,0.928,0.181,1.212,0.67C61.645,66.155,62.264,67.393,62.651,68.58z"/>
		<path class="st0" d="M92.107,62.26c2.708-0.026,3.766,0.954,3.766,2.683c0,0.438-0.052,0.928-0.181,1.47
			c-1.419,6.113-5.907,11.375-11.995,14.342c-0.309,0.155-0.593,0.206-0.851,0.206c-0.877,0-1.496-0.722-1.496-1.521
			c0-0.491,0.258-1.032,0.903-1.368c5.7-2.966,8.925-7.093,10.266-11.71c0.052-0.207,0.077-0.361,0.077-0.516
			c0-0.49-0.335-0.67-1.083-0.67L79.081,65.33c-0.98,0.026-1.496-0.774-1.496-1.522c0-0.696,0.464-1.419,1.367-1.419L92.107,62.26z
			 M100,60.093c0,1.574-1.213,2.786-2.76,2.786c-1.574,0-2.786-1.213-2.786-2.786c0-1.548,1.212-2.759,2.786-2.759
			C98.787,57.334,100,58.546,100,60.093z M95.744,60.093c0,0.825,0.67,1.496,1.496,1.496s1.47-0.671,1.47-1.496
			c0-0.825-0.645-1.47-1.47-1.47S95.744,59.268,95.744,60.093z"/>
	</g>
</g>
<g>
	<circle class="st0" cx="50" cy="33.967" r="17.301"/>
	<g>
		<path class="st1" d="M55.714,38.61c0.825,0,1.264,0.594,1.264,1.316c0,0.722-0.439,1.315-1.264,1.315h-7.171
			c-3.044,0-3.895-1.006-3.895-3.482V23.03c0-0.954,0.697-1.47,1.625-1.47s1.573,0.516,1.573,1.47v14.213
			c0,1.032,0.258,1.367,1.444,1.367H55.714z"/>
	</g>
</g>
</svg>
