<?xml version="1.0" encoding="utf-8"?>
<!-- Generator: Adobe Illustrator 25.1.0, SVG Export Plug-In . SVG Version: 6.00 Build 0)  -->
<svg version="1.1" id="レイヤー_1" xmlns="http://www.w3.org/2000/svg" xmlns:xlink="http://www.w3.org/1999/xlink" x="0px"
	 y="0px" viewBox="0 0 256 255" style="enable-background:new 0 0 256 255;" xml:space="preserve">
<style type="text/css">
	.st0{fill:#464342;}
</style>
<g>
	<path class="st0" d="M18.124,127.5c0,43.295,25.161,80.711,61.646,98.441L27.594,82.986C21.525,96.589,18.124,111.643,18.124,127.5
		L18.124,127.5z M201.345,121.981c0-13.518-4.856-22.88-9.02-30.166c-5.545-9.01-10.742-16.64-10.742-25.65
		c0-10.055,7.626-19.414,18.367-19.414c0.485,0,0.945,0.06,1.417,0.087c-19.46-17.828-45.387-28.714-73.863-28.714
		c-38.213,0-71.832,19.606-91.39,49.302c2.566,0.077,4.985,0.131,7.039,0.131c11.441,0,29.151-1.388,29.151-1.388
		c5.896-0.348,6.591,8.313,0.701,9.01c0,0-5.925,0.697-12.519,1.043l39.832,118.478l23.937-71.79l-17.042-46.692
		c-5.89-0.345-11.47-1.043-11.47-1.043c-5.894-0.345-5.203-9.358,0.691-9.01c0,0,18.064,1.388,28.811,1.388
		c11.439,0,29.151-1.388,29.151-1.388c5.9-0.348,6.594,8.313,0.701,9.01c0,0-5.938,0.697-12.519,1.043l39.528,117.581l10.91-36.458
		C197.746,142.211,201.345,131.345,201.345,121.981L201.345,121.981z M129.424,137.068l-32.818,95.363
		c9.799,2.881,20.162,4.456,30.899,4.456c12.738,0,24.953-2.202,36.323-6.2c-0.293-0.468-0.56-0.966-0.778-1.507L129.424,137.068
		L129.424,137.068z M223.482,75.023c0.47,3.484,0.737,7.224,0.737,11.247c0,11.1-2.073,23.577-8.317,39.178l-33.411,96.599
		c32.518-18.963,54.391-54.193,54.391-94.545C236.883,108.486,232.025,90.603,223.482,75.023L223.482,75.023z M127.505,0
		C57.2,0,0,57.196,0,127.5c0,70.313,57.2,127.507,127.505,127.507c70.302,0,127.511-57.194,127.511-127.507
		C255.013,57.196,197.807,0,127.505,0L127.505,0z M127.505,249.163c-67.08,0-121.658-54.578-121.658-121.662
		c0-67.08,54.576-121.654,121.658-121.654c67.078,0,121.652,54.574,121.652,121.654
		C249.157,194.585,194.583,249.163,127.505,249.163L127.505,249.163z"/>
</g>
</svg>
