<?xml version="1.0" encoding="utf-8"?>
<!-- Generator: Adobe Illustrator 25.1.0, SVG Export Plug-In . SVG Version: 6.00 Build 0)  -->
<svg version="1.1" id="レイヤー_1" xmlns="http://www.w3.org/2000/svg" xmlns:xlink="http://www.w3.org/1999/xlink" x="0px"
	 y="0px" viewBox="0 0 500 500" style="enable-background:new 0 0 500 500;" xml:space="preserve">
<style type="text/css">
	.st0{fill-rule:evenodd;clip-rule:evenodd;fill:#FF2BC2;}
	.st1{fill-rule:evenodd;clip-rule:evenodd;fill:#2E001E;}
	.st2{fill-rule:evenodd;clip-rule:evenodd;fill:#FF3BC1;}
	.st3{fill-rule:evenodd;clip-rule:evenodd;fill:#FE31C0;}
</style>
<g id="Layer_x0020_1">
	<rect x="30.671" y="32.003" class="st0" width="438.687" height="435.994"/>
	<rect x="67.436" y="68.541" class="st1" width="365.157" height="362.918"/>
	<path class="st2" d="M115.511,152.191c1.446,3.146,3.6,7.002,4.394,8.617c2.211,4.422,4.365,8.532,6.548,12.898l35.575,70.809
		c1.049,2.069,3.005,4.394,2.013,6.633l-49.918,95.3c-1.191,2.353-3.827,5.102,0.964,5.102h29.594c4.195,0,4.252-2.211,6.916-7.88
		l33.874-70.979c2.324,2.041,29.99,62.107,36.68,75.826c1.162,2.381,1.446,3.033,4.847,3.033c4.791,0,31.124,0.567,33.647-0.51
		c0.539-2.778-4.252-10.431-5.669-13.124l-13.153-25.228c-10.403-20.012-22.309-44.305-32.853-63.326
		c-2.154-3.883-1.332-3.685,3.515-12.671c2.353-4.365,4.309-8.362,6.661-12.727c2.154-4.054,4.337-8.22,6.491-12.444l19.786-38.069
		c1.842-3.487,10.602-19.049,12.076-24.236c0.482-1.729-2.381-1.616-4.422-1.616l-26.135,0.028c-0.142,0-0.283,0-0.425,0
		c-2.863,0-3.288,0.567-4.309,2.636l-25.682,54.793c-1.247,2.778-8.079,18.794-9.326,19.786c-2.693-6.661-5.981-13.096-8.901-19.729
		l-18.765-39.515c-1.701-3.231-3.005-6.52-4.62-9.723c-0.879-1.757-1.644-3.231-2.409-4.961c-1.077-2.409-0.935-3.288-4.139-3.288
		l-29.962,0.028C113.952,147.684,113.499,147.826,115.511,152.191z"/>
	<path class="st3" d="M301.775,278.502c0-12.359,1.276-24.094,8.192-34.469c1.446-2.211,3.883-5.471,5.528-6.973
		c8.447-7.625,22.592-13.351,37.672-8.447l0.057,93.883C323.715,331,301.775,312.801,301.775,278.502z M353.223,198.736
		l-12.019-0.227c-23.046,0-42.321,11.112-52.781,22.11c-10.772,11.339-20.863,31.691-20.863,54.17
		c0,24.605,4.535,42.519,17.83,58.11c9.411,11.083,27.723,21.203,49.804,21.203c11.537,0,19.927-0.624,31.209-3.657
		c5.499-1.502,17.972-5.556,21.26-8.362c0.397-2.098-0.454-8.164-0.567-10.857c-0.397-11.168-0.142-26.079-0.113-37.474
		l0.028-142.44c0.028-2.835,0.17-3.685-2.806-3.685h-28.205c-3.912,0-2.778,2.409-2.778,10.658V198.736z"/>
</g>
</svg>
